HIERARCHY
ROOT Hips
{
	OFFSET 0.000000 0.000000 0.000000
	CHANNELS 6 Xposition Yposition Zposition Zrotation Yrotation Xrotation 
	JOINT LHipJoint
	{
		OFFSET 0.000000 0.000000 0.000000
		CHANNELS 3 Zrotation Yrotation Xrotation
		JOINT LeftUpLeg
		{
			OFFSET 1.363060 -1.794630 0.839290
			CHANNELS 3 Zrotation Yrotation Xrotation
			JOINT LeftLeg
			{
				OFFSET 2.448110 -6.726130 0.000000
				CHANNELS 3 Zrotation Yrotation Xrotation
				JOINT LeftFoot
				{
					OFFSET 2.562200 -7.039590 0.000000
					CHANNELS 3 Zrotation Yrotation Xrotation
					JOINT LeftToeBase
					{
						OFFSET 0.157640 -0.433110 2.322550
						CHANNELS 3 Zrotation Yrotation Xrotation
						End Site
						{
							OFFSET 0.000000 0.000000 0.000000
						}
					}
				}
			}
		}
	}
	JOINT RHipJoint
	{
		OFFSET 0.000000 0.000000 0.000000
		CHANNELS 3 Zrotation Yrotation Xrotation
		JOINT RightUpLeg
		{
			OFFSET -1.305520 -1.794630 0.839290
			CHANNELS 3 Zrotation Yrotation Xrotation
			JOINT RightLeg
			{
				OFFSET -2.542530 -6.985550 0.000000
				CHANNELS 3 Zrotation Yrotation Xrotation
				JOINT RightFoot
				{
					OFFSET -2.568260 -7.056230 0.000000
					CHANNELS 3 Zrotation Yrotation Xrotation
					JOINT RightToeBase
					{
						OFFSET -0.164730 -0.452590 2.363150
						CHANNELS 3 Zrotation Yrotation Xrotation
						End Site
						{
							OFFSET 0.000000 0.000000 0.000000
						}
					}
				}
			}
		}
	}
	JOINT LowerBack
	{
		OFFSET 0.000000 0.000000 0.000000
		CHANNELS 3 Zrotation Yrotation Xrotation
		JOINT Spine
		{
			OFFSET 0.028270 2.035590 -0.193380
			CHANNELS 3 Zrotation Yrotation Xrotation
			JOINT Spine1
			{
				OFFSET 0.056720 2.048850 -0.042750
				CHANNELS 3 Zrotation Yrotation Xrotation
				JOINT Neck
				{
					OFFSET 0.000000 0.000000 0.000000
					CHANNELS 3 Zrotation Yrotation Xrotation
					JOINT Neck1
					{
						OFFSET -0.054170 1.746240 0.172020
						CHANNELS 3 Zrotation Yrotation Xrotation
						JOINT Head
						{
							OFFSET 0.104070 1.761360 -0.123970
							CHANNELS 3 Zrotation Yrotation Xrotation
							End Site
							{
								OFFSET 0.000000 0.000000 0.000000
							}
						}
					}
				}
				JOINT LeftShoulder
				{
					OFFSET 0.000000 0.000000 0.000000
					CHANNELS 3 Zrotation Yrotation Xrotation
					JOINT LeftArm
					{
						OFFSET 3.362410 1.200890 -0.311210
						CHANNELS 3 Zrotation Yrotation Xrotation
						JOINT LeftForeArm
						{
							OFFSET 4.983000 -0.000000 -0.000000
							CHANNELS 3 Zrotation Yrotation Xrotation
							JOINT LeftHand
							{
								OFFSET 3.483560 -0.000000 -0.000000
								CHANNELS 3 Zrotation Yrotation Xrotation
								JOINT LeftFingerBase
								{
									OFFSET 0.000000 0.000000 0.000000
									CHANNELS 3 Zrotation Yrotation Xrotation
									JOINT LeftHandIndex1
									{
										OFFSET 0.715260 -0.000000 -0.000000
										CHANNELS 3 Zrotation Yrotation Xrotation
										End Site
										{
											OFFSET 0.000000 0.000000 0.000000
										}
									}
								}
								JOINT LThumb
								{
									OFFSET 0.000000 0.000000 0.000000
									CHANNELS 3 Zrotation Yrotation Xrotation
									End Site
									{
										OFFSET 0.000000 0.000000 0.000000
									}
								}
							}
						}
					}
				}
				JOINT RightShoulder
				{
					OFFSET 0.000000 0.000000 0.000000
					CHANNELS 3 Zrotation Yrotation Xrotation
					JOINT RightArm
					{
						OFFSET -3.136600 1.374050 -0.404650
						CHANNELS 3 Zrotation Yrotation Xrotation
						JOINT RightForeArm
						{
							OFFSET -5.241900 -0.000000 -0.000000
							CHANNELS 3 Zrotation Yrotation Xrotation
							JOINT RightHand
							{
								OFFSET -3.444170 -0.000000 -0.000000
								CHANNELS 3 Zrotation Yrotation Xrotation
								JOINT RightFingerBase
								{
									OFFSET 0.000000 0.000000 0.000000
									CHANNELS 3 Zrotation Yrotation Xrotation
									JOINT RightHandIndex1
									{
										OFFSET -0.622530 -0.000000 -0.000000
										CHANNELS 3 Zrotation Yrotation Xrotation
										End Site
										{
											OFFSET 0.000000 0.000000 0.000000
										}
									}
								}
								JOINT RThumb
								{
									OFFSET 0.000000 0.000000 0.000000
									CHANNELS 3 Zrotation Yrotation Xrotation
									End Site
									{
										OFFSET 0.000000 0.000000 0.000000
									}
								}
							}
						}
					}
				}
			}
		}
	}
}
MOTION
Frames: 8
Frame Time: 0.008333
-1.102323 18.135285 5.959598 -2.179736 -4.800313 -2.256734 -0.832782 4.849634 4.586619 -11.035791 -10.413451 16.556726 -2.164202 -4.194341 -9.131282 -6.394724 22.957625 -2.503866 0.076300 -1.782500 -4.904900 -0.572568 -4.690027 3.442820 16.161537 0.338451 10.949960 1.475822 2.842732 -4.291545 2.208455 -10.364942 -7.692070 -0.109000 -2.128700 5.861500 2.855737 2.093472 -3.458284 -0.085228 2.135727 15.005283 -2.368427 1.587828 -9.953851 -0.441611 -1.643496 -22.560454 2.158058 -1.817563 19.324416 0.027100 -0.590500 7.969700 1.979843 -8.035950 0.173248 -91.038288 8.393786 22.042051 24.505354 -33.840639 -7.380668 0.570293 0.714195 -0.524367 10.144449 -25.570266 -4.279300 -7.125000 0.000000 0.000000 -12.207400 3.830100 11.636700 -3.737203 9.670780 2.712014 96.083005 -13.698553 12.248327 -34.674631 41.874283 -11.438866 1.442659 -2.170583 8.653689 -8.505462 -29.820576 4.839500 7.125000 0.000000 0.000000 21.903600 -56.713700 -6.504300 
-1.103931 18.135386 5.951862 -2.125181 -4.770839 -2.279255 -0.838694 4.847619 4.585166 -11.059022 -10.307842 16.494684 -2.161437 -4.197521 -9.130687 -6.368887 22.888717 -2.370995 0.079400 -1.817300 -5.000900 -0.573160 -4.693015 3.447790 16.109365 0.315200 10.931216 1.474906 2.844512 -4.297359 2.213487 -10.378507 -7.660955 -0.103600 -2.075800 5.715300 2.764903 2.099452 -3.433665 -0.095700 2.143282 15.064249 -2.325701 1.598231 -9.978453 -0.535497 -1.720928 -22.690569 2.176464 -1.906757 19.470980 0.033300 -0.633300 8.023000 1.982040 -8.039224 0.183687 -91.444692 8.979240 22.190038 25.980338 -35.293356 -8.131677 0.554111 0.718825 -0.349767 9.509001 -25.187991 -3.945700 -7.125000 0.000000 0.000000 -12.564100 4.274400 11.887700 -3.738477 9.670230 2.704819 96.108815 -13.630621 12.660994 -34.768398 41.958351 -11.471193 1.447165 -2.165851 8.525721 -8.466263 -29.664167 4.795900 7.125000 0.000000 0.000000 21.841200 -56.564100 -6.404200 
-1.105940 18.136792 5.944126 -2.194845 -4.749424 -2.287446 -0.827676 4.850856 4.586615 -10.941505 -10.099024 16.407008 -2.149966 -4.218123 -9.177300 -6.323136 22.773296 -2.101448 0.088800 -1.922100 -5.290500 -0.560195 -4.687442 3.449164 16.191286 0.310234 10.848358 1.477109 2.794467 -4.163961 2.207076 -10.352361 -7.664844 -0.095500 -1.992600 5.485200 2.764690 2.110190 -3.392736 0.004959 2.156588 15.103351 -2.361653 1.606264 -10.002011 -0.600141 -1.741177 -22.674265 2.220546 -1.926753 19.444737 0.047600 -0.641600 8.016300 1.984523 -8.029550 0.173081 -91.327128 8.457202 23.236954 25.062243 -34.420301 -7.664508 0.573846 0.719039 -0.948452 9.869456 -25.975592 -4.209700 -7.125000 0.000000 0.000000 -12.390900 3.464900 11.905800 -3.757568 9.660224 2.697639 96.173084 -13.534943 12.976561 -34.758559 41.968346 -11.448564 1.488102 -2.149862 8.571498 -7.437296 -30.022548 4.384700 7.125000 0.000000 0.000000 23.103100 -56.729700 -6.896100 
-1.108050 18.137696 5.936189 -2.279708 -4.705855 -2.300465 -0.819874 4.855995 4.590441 -10.824880 -10.040401 16.359714 -2.143590 -4.223179 -9.197219 -6.302775 22.724667 -1.950966 0.098500 -2.023500 -5.570700 -0.554464 -4.682063 3.445690 16.289558 0.265495 10.809924 1.478389 2.772634 -4.100114 2.206458 -10.349853 -7.671006 -0.096500 -2.002900 5.513700 2.816015 2.112104 -3.324745 0.044229 2.164295 15.117149 -2.409934 1.604799 -10.032963 -0.580975 -1.759229 -22.634704 2.220819 -1.957154 19.412423 0.040100 -0.655000 8.002400 1.985561 -8.026719 0.171965 -91.434494 8.438403 23.753848 25.149305 -34.518479 -7.706478 0.573616 0.721461 -1.034398 9.885413 -26.014432 -4.222500 -7.125000 0.000000 0.000000 -12.383400 3.423300 11.907900 -3.772429 9.656673 2.689978 96.287002 -13.434301 13.235254 -34.661256 41.916232 -11.369937 1.566526 -2.117579 8.677209 -5.363970 -30.679893 3.515400 7.125000 0.000000 0.000000 25.621900 -56.990800 -7.880600 
-1.109557 18.138601 5.929558 -2.274107 -4.636363 -2.298469 -0.826248 4.853234 4.587476 -10.798031 -10.017220 16.321407 -2.139407 -4.235285 -9.232661 -6.285076 22.684440 -1.842467 0.103200 -2.071200 -5.702300 -0.556086 -4.679860 3.442297 16.294370 0.216322 10.728061 1.478558 2.739398 -4.010511 2.196098 -10.310593 -7.687728 -0.100900 -2.048400 5.639600 2.809006 2.109518 -3.283229 -0.016833 2.165987 15.095901 -2.399360 1.604214 -10.048775 -0.582194 -1.791530 -22.547851 2.266250 -2.013819 19.364843 0.045800 -0.678800 7.979200 1.997347 -8.029996 0.171094 -91.575393 8.418222 24.146583 25.116067 -34.496514 -7.685384 0.574284 0.721557 -0.952492 9.958155 -26.021767 -4.257500 -7.125000 0.000000 0.000000 -12.340300 3.406200 11.868400 -3.773210 9.655708 2.683478 96.391949 -13.378603 13.560643 -34.478607 41.793820 -11.250277 1.590982 -2.112151 8.705049 -4.675432 -30.800621 3.207100 7.125000 0.000000 0.000000 26.386400 -56.982200 -8.133200 
-1.111064 18.139103 5.923631 -2.258408 -4.566117 -2.309030 -0.828810 4.850193 4.583152 -10.774754 -9.908444 16.251630 -2.133828 -4.240746 -9.241137 -6.245263 22.575951 -1.675650 0.100200 -2.041200 -5.619400 -0.554577 -4.680302 3.441274 16.285245 0.155096 10.683824 1.477892 2.724296 -3.969650 2.195329 -10.305312 -7.678685 -0.098100 -2.019600 5.559700 2.755787 2.095265 -3.232653 -0.025692 2.148373 15.076371 -2.375061 1.598838 -10.072639 -0.648687 -1.834982 -22.467428 2.337866 -2.075525 19.334025 0.066300 -0.705900 7.961500 2.007017 -8.035675 0.168223 -91.798876 8.410848 24.273561 25.002526 -34.394033 -7.620046 0.581109 0.710166 -0.623778 9.723451 -26.083904 -4.155600 -7.125000 0.000000 0.000000 -12.483100 3.381900 12.018400 -3.776067 9.655352 2.680372 96.440530 -13.369858 13.981851 -34.243189 41.629669 -11.118989 1.565645 -2.133683 8.687227 -5.319811 -30.653299 3.490400 7.125000 0.000000 0.000000 25.632900 -56.945300 -7.855500 
-1.113073 18.139103 5.916096 -2.283967 -4.484107 -2.324199 -0.829017 4.849658 4.579312 -10.706198 -9.797684 16.161105 -2.127754 -4.233421 -9.220247 -6.197213 22.438502 -1.496614 0.104400 -2.083200 -5.735700 -0.555078 -4.679373 3.434956 16.317371 0.060711 10.689357 1.476746 2.735881 -3.994312 2.202863 -10.332762 -7.665852 -0.093000 -1.967100 5.414600 2.754728 2.074687 -3.118507 -0.038025 2.127956 15.023455 -2.375192 1.586514 -10.128106 -0.620493 -1.847122 -22.418059 2.283094 -2.091470 19.326629 0.047800 -0.718000 7.949200 2.009754 -8.037586 0.169376 -91.976169 8.423044 24.411640 24.831688 -34.232112 -7.523492 0.586928 0.698044 -0.338849 9.469100 -26.078986 -4.035200 -7.125000 0.000000 0.000000 -12.634700 3.426800 12.161300 -3.780366 9.657621 2.682515 96.505594 -13.367263 14.384435 -33.969051 41.439659 -10.972891 1.543776 -2.155033 8.659576 -5.866953 -30.621347 3.739300 7.125000 0.000000 0.000000 25.058800 -56.993100 -7.693300 
-1.114480 18.139907 5.909565 -2.256489 -4.390960 -2.316841 -0.842662 4.845922 4.576331 -10.692641 -9.742687 16.073300 -2.124385 -4.228896 -9.208762 -6.161693 22.339089 -1.355896 0.114200 -2.178300 -5.998800 -0.563023 -4.680786 3.431961 16.295840 -0.029920 10.662036 1.475349 2.745497 -4.014539 2.204985 -10.340741 -7.671482 -0.090000 -1.934400 5.324400 2.762387 2.066713 -3.068725 -0.152090 2.124245 15.012460 -2.350537 1.582416 -10.150586 -0.515386 -1.839979 -22.344860 2.131717 -2.084015 19.238282 -0.001100 -0.726800 7.915000 2.024600 -8.041118 0.166982 -92.061186 8.353972 24.699005 24.541410 -33.947835 -7.367022 0.591848 0.689219 -0.090901 9.409153 -26.044825 -4.001100 -7.125000 0.000000 0.000000 -12.670100 3.473700 12.185900 -3.785647 9.657563 2.675114 96.588270 -13.322053 14.698882 -33.668430 41.219892 -10.800073 1.526345 -2.172964 8.773896 -6.154459 -30.425662 3.847000 7.125000 0.000000 0.000000 24.626100 -56.854500 -7.464800 
